<svg width="24" height="24" viewBox="0 0 24 24" fill="none" xmlns="http://www.w3.org/2000/svg">
<path d="M13.2109 12.0079L14.9893 14.0404L17.3944 15.5817L17.8179 12.0249L17.3944 8.55273L14.9555 9.90771L13.2109 12.0079Z" fill="#00832D"/>
<path d="M2.8457 15.2439V18.2756C2.8457 18.97 3.40463 19.529 4.09906 19.529H7.13081L7.75749 17.2425L7.14775 15.2439L5.06448 14.6172L2.8457 15.2439Z" fill="#0066DA"/>
<path d="M7.14775 4.4707L2.8457 8.75581L5.04754 9.38249L7.13081 8.75581L7.74055 6.7911L7.14775 4.4707Z" fill="#E94235"/>
<path d="M7.14775 8.75586H2.8457V15.2428H7.13081V8.75586H7.14775Z" fill="#2684FC"/>
<path d="M20.1214 6.28328L17.3775 8.53592V15.5818L20.1214 17.8344C20.5278 18.1562 21.1376 17.8683 21.1376 17.3433V6.77446C21.1545 6.2494 20.5448 5.94453 20.1214 6.28328ZM13.211 12.008V15.2431H7.14746V19.5282H16.1411C16.8355 19.5282 17.3945 18.9692 17.3945 18.2748V15.5818L13.211 12.008Z" fill="#00AC47"/>
<path d="M16.1411 4.4707H7.14746V8.75581H13.211V11.9908L17.3945 8.51869V5.72406C17.3945 5.02963 16.8355 4.4707 16.1411 4.4707Z" fill="#FFBA00"/>
</svg>
